<svg width="1024" height="421" viewBox="0 0 1024 421" fill="none" xmlns="http://www.w3.org/2000/svg">
<path d="M262.224 354.181H268.58L284.792 394.525L300.971 354.181H307.361L287.24 403.668H282.277L262.224 354.181ZM260.151 354.181H265.759L266.677 384.363V403.668H260.151V354.181ZM303.792 354.181H309.4V403.668H302.874V384.363L303.792 354.181ZM341.655 397.38V378.449C341.655 376.999 341.36 375.741 340.771 374.676C340.205 373.589 339.344 372.75 338.188 372.161C337.032 371.572 335.605 371.277 333.905 371.277C332.319 371.277 330.926 371.549 329.725 372.093C328.547 372.637 327.618 373.351 326.938 374.234C326.281 375.118 325.952 376.07 325.952 377.089H319.664C319.664 375.775 320.004 374.472 320.684 373.181C321.364 371.889 322.338 370.722 323.607 369.68C324.899 368.615 326.439 367.777 328.229 367.165C330.042 366.53 332.059 366.213 334.279 366.213C336.953 366.213 339.31 366.666 341.349 367.573C343.411 368.479 345.02 369.85 346.175 371.685C347.354 373.498 347.943 375.775 347.943 378.517V395.647C347.943 396.871 348.045 398.173 348.249 399.556C348.475 400.938 348.804 402.127 349.234 403.124V403.668H342.674C342.357 402.943 342.108 401.98 341.927 400.779C341.745 399.556 341.655 398.423 341.655 397.38ZM342.742 381.372L342.81 385.79H336.455C334.665 385.79 333.067 385.938 331.662 386.232C330.257 386.504 329.079 386.923 328.127 387.49C327.176 388.056 326.451 388.77 325.952 389.631C325.454 390.469 325.205 391.455 325.205 392.588C325.205 393.744 325.465 394.797 325.986 395.749C326.507 396.701 327.289 397.46 328.331 398.026C329.396 398.57 330.699 398.842 332.24 398.842C334.166 398.842 335.865 398.434 337.338 397.618C338.811 396.803 339.978 395.806 340.839 394.627C341.723 393.449 342.199 392.305 342.267 391.195L344.952 394.219C344.793 395.171 344.363 396.225 343.66 397.38C342.958 398.536 342.017 399.646 340.839 400.711C339.683 401.754 338.301 402.626 336.693 403.328C335.106 404.008 333.316 404.348 331.322 404.348C328.83 404.348 326.643 403.861 324.763 402.886C322.905 401.912 321.454 400.609 320.412 398.978C319.393 397.324 318.883 395.477 318.883 393.438C318.883 391.466 319.268 389.733 320.038 388.238C320.809 386.719 321.919 385.462 323.369 384.465C324.819 383.445 326.564 382.675 328.603 382.154C330.643 381.632 332.92 381.372 335.435 381.372H342.742ZM373.23 366.893V371.719H353.347V366.893H373.23ZM360.076 357.954H366.364V394.559C366.364 395.806 366.557 396.746 366.942 397.38C367.327 398.015 367.826 398.434 368.438 398.638C369.049 398.842 369.706 398.944 370.409 398.944C370.93 398.944 371.474 398.899 372.04 398.808C372.629 398.695 373.071 398.604 373.366 398.536L373.4 403.668C372.901 403.827 372.244 403.974 371.429 404.11C370.635 404.269 369.672 404.348 368.54 404.348C366.999 404.348 365.583 404.042 364.291 403.43C362.999 402.819 361.968 401.799 361.198 400.371C360.45 398.921 360.076 396.973 360.076 394.525V357.954ZM386.893 351.462V403.668H380.605V351.462H386.893ZM385.398 383.887L382.781 383.785C382.803 381.27 383.177 378.947 383.902 376.817C384.627 374.665 385.647 372.796 386.961 371.209C388.275 369.623 389.839 368.4 391.652 367.539C393.487 366.655 395.515 366.213 397.735 366.213C399.548 366.213 401.18 366.462 402.63 366.961C404.08 367.437 405.315 368.207 406.334 369.272C407.377 370.337 408.17 371.719 408.714 373.419C409.257 375.095 409.529 377.146 409.529 379.571V403.668H403.208V379.503C403.208 377.577 402.924 376.036 402.358 374.88C401.791 373.702 400.964 372.852 399.877 372.331C398.789 371.787 397.452 371.515 395.866 371.515C394.303 371.515 392.875 371.844 391.584 372.501C390.315 373.158 389.216 374.064 388.287 375.22C387.38 376.376 386.667 377.701 386.145 379.197C385.647 380.669 385.398 382.233 385.398 383.887ZM434.205 404.348C431.644 404.348 429.322 403.917 427.237 403.056C425.175 402.173 423.397 400.938 421.901 399.352C420.428 397.766 419.295 395.885 418.502 393.71C417.709 391.534 417.313 389.155 417.313 386.572V385.145C417.313 382.154 417.755 379.491 418.638 377.157C419.522 374.801 420.723 372.807 422.241 371.175C423.759 369.544 425.481 368.309 427.407 367.471C429.333 366.632 431.327 366.213 433.389 366.213C436.018 366.213 438.283 366.666 440.187 367.573C442.113 368.479 443.688 369.748 444.911 371.379C446.135 372.988 447.041 374.891 447.63 377.089C448.219 379.265 448.514 381.644 448.514 384.227V387.048H421.051V381.916H442.226V381.44C442.135 379.808 441.796 378.222 441.206 376.682C440.64 375.141 439.734 373.872 438.487 372.875C437.241 371.878 435.542 371.379 433.389 371.379C431.962 371.379 430.647 371.685 429.446 372.297C428.246 372.886 427.215 373.77 426.354 374.948C425.492 376.126 424.824 377.565 424.348 379.265C423.872 380.964 423.634 382.924 423.634 385.145V386.572C423.634 388.317 423.872 389.96 424.348 391.5C424.847 393.019 425.56 394.355 426.489 395.511C427.441 396.667 428.585 397.573 429.922 398.23C431.282 398.887 432.823 399.216 434.545 399.216C436.765 399.216 438.646 398.763 440.187 397.856C441.728 396.95 443.076 395.738 444.231 394.219L448.038 397.244C447.245 398.445 446.237 399.59 445.013 400.677C443.79 401.765 442.283 402.649 440.493 403.328C438.725 404.008 436.629 404.348 434.205 404.348ZM462.109 374.2V403.668H455.787V366.893H461.769L462.109 374.2ZM460.818 383.887L457.895 383.785C457.917 381.27 458.246 378.947 458.88 376.817C459.515 374.665 460.455 372.796 461.701 371.209C462.948 369.623 464.5 368.4 466.358 367.539C468.216 366.655 470.368 366.213 472.815 366.213C474.538 366.213 476.124 366.462 477.574 366.961C479.024 367.437 480.282 368.196 481.347 369.238C482.411 370.28 483.239 371.617 483.828 373.249C484.417 374.88 484.711 376.851 484.711 379.163V403.668H478.424V379.469C478.424 377.543 478.095 376.002 477.438 374.846C476.803 373.691 475.897 372.852 474.719 372.331C473.541 371.787 472.158 371.515 470.572 371.515C468.714 371.515 467.162 371.844 465.916 372.501C464.67 373.158 463.673 374.064 462.925 375.22C462.177 376.376 461.633 377.701 461.293 379.197C460.976 380.669 460.818 382.233 460.818 383.887ZM484.643 380.42L480.429 381.712C480.451 379.695 480.78 377.758 481.414 375.9C482.072 374.042 483.012 372.388 484.236 370.938C485.482 369.487 487.011 368.343 488.824 367.505C490.637 366.644 492.71 366.213 495.044 366.213C497.015 366.213 498.76 366.474 500.278 366.995C501.819 367.516 503.11 368.32 504.153 369.408C505.218 370.473 506.022 371.844 506.566 373.521C507.11 375.197 507.382 377.191 507.382 379.503V403.668H501.06V379.435C501.06 377.373 500.731 375.775 500.074 374.642C499.44 373.487 498.533 372.682 497.355 372.229C496.199 371.753 494.817 371.515 493.208 371.515C491.826 371.515 490.603 371.753 489.538 372.229C488.473 372.705 487.578 373.362 486.853 374.2C486.128 375.016 485.572 375.956 485.187 377.021C484.825 378.086 484.643 379.219 484.643 380.42ZM538.583 397.38V378.449C538.583 376.999 538.288 375.741 537.699 374.676C537.133 373.589 536.272 372.75 535.116 372.161C533.96 371.572 532.533 371.277 530.833 371.277C529.247 371.277 527.854 371.549 526.653 372.093C525.475 372.637 524.546 373.351 523.866 374.234C523.209 375.118 522.88 376.07 522.88 377.089H516.592C516.592 375.775 516.932 374.472 517.612 373.181C518.292 371.889 519.266 370.722 520.535 369.68C521.827 368.615 523.367 367.777 525.157 367.165C526.97 366.53 528.987 366.213 531.207 366.213C533.881 366.213 536.238 366.666 538.277 367.573C540.339 368.479 541.948 369.85 543.103 371.685C544.281 373.498 544.871 375.775 544.871 378.517V395.647C544.871 396.871 544.973 398.173 545.176 399.556C545.403 400.938 545.732 402.127 546.162 403.124V403.668H539.602C539.285 402.943 539.036 401.98 538.855 400.779C538.673 399.556 538.583 398.423 538.583 397.38ZM539.67 381.372L539.738 385.79H533.383C531.592 385.79 529.995 385.938 528.59 386.232C527.185 386.504 526.007 386.923 525.055 387.49C524.104 388.056 523.379 388.77 522.88 389.631C522.382 390.469 522.132 391.455 522.132 392.588C522.132 393.744 522.393 394.797 522.914 395.749C523.435 396.701 524.217 397.46 525.259 398.026C526.324 398.57 527.627 398.842 529.168 398.842C531.094 398.842 532.793 398.434 534.266 397.618C535.739 396.803 536.906 395.806 537.767 394.627C538.651 393.449 539.127 392.305 539.195 391.195L541.88 394.219C541.721 395.171 541.29 396.225 540.588 397.38C539.886 398.536 538.945 399.646 537.767 400.711C536.611 401.754 535.229 402.626 533.62 403.328C532.034 404.008 530.244 404.348 528.25 404.348C525.758 404.348 523.571 403.861 521.691 402.886C519.833 401.912 518.382 400.609 517.34 398.978C516.32 397.324 515.811 395.477 515.811 393.438C515.811 391.466 516.196 389.733 516.966 388.238C517.737 386.719 518.847 385.462 520.297 384.465C521.747 383.445 523.492 382.675 525.531 382.154C527.571 381.632 529.848 381.372 532.363 381.372H539.67ZM570.158 366.893V371.719H550.275V366.893H570.158ZM557.004 357.954H563.292V394.559C563.292 395.806 563.485 396.746 563.87 397.38C564.255 398.015 564.754 398.434 565.365 398.638C565.977 398.842 566.634 398.944 567.337 398.944C567.858 398.944 568.402 398.899 568.968 398.808C569.557 398.695 569.999 398.604 570.294 398.536L570.328 403.668C569.829 403.827 569.172 403.974 568.356 404.11C567.563 404.269 566.6 404.348 565.467 404.348C563.927 404.348 562.51 404.042 561.219 403.43C559.927 402.819 558.896 401.799 558.126 400.371C557.378 398.921 557.004 396.973 557.004 394.525V357.954ZM584.365 366.893V403.668H578.043V366.893H584.365ZM577.567 357.138C577.567 356.119 577.873 355.258 578.485 354.555C579.119 353.853 580.048 353.502 581.272 353.502C582.473 353.502 583.391 353.853 584.025 354.555C584.682 355.258 585.011 356.119 585.011 357.138C585.011 358.113 584.682 358.951 584.025 359.653C583.391 360.333 582.473 360.673 581.272 360.673C580.048 360.673 579.119 360.333 578.485 359.653C577.873 358.951 577.567 358.113 577.567 357.138ZM609.176 399.182C610.672 399.182 612.054 398.876 613.323 398.264C614.592 397.652 615.634 396.814 616.45 395.749C617.266 394.661 617.73 393.426 617.843 392.044H623.825C623.712 394.219 622.976 396.247 621.616 398.128C620.279 399.986 618.523 401.493 616.348 402.649C614.173 403.782 611.782 404.348 609.176 404.348C606.412 404.348 603.999 403.861 601.937 402.886C599.898 401.912 598.198 400.575 596.839 398.876C595.502 397.176 594.493 395.228 593.814 393.03C593.157 390.809 592.828 388.464 592.828 385.994V384.567C592.828 382.097 593.157 379.763 593.814 377.565C594.493 375.345 595.502 373.385 596.839 371.685C598.198 369.986 599.898 368.649 601.937 367.675C603.999 366.7 606.412 366.213 609.176 366.213C612.054 366.213 614.569 366.802 616.722 367.981C618.874 369.136 620.562 370.722 621.786 372.739C623.032 374.733 623.712 376.999 623.825 379.537H617.843C617.73 378.018 617.299 376.648 616.552 375.424C615.827 374.2 614.83 373.226 613.561 372.501C612.315 371.753 610.853 371.379 609.176 371.379C607.25 371.379 605.63 371.765 604.316 372.535C603.024 373.283 601.993 374.302 601.223 375.594C600.475 376.863 599.932 378.279 599.592 379.842C599.274 381.383 599.116 382.958 599.116 384.567V385.994C599.116 387.603 599.274 389.189 599.592 390.753C599.909 392.316 600.441 393.732 601.189 395.001C601.959 396.27 602.99 397.29 604.282 398.06C605.596 398.808 607.228 399.182 609.176 399.182ZM652.307 393.914C652.307 393.007 652.103 392.169 651.696 391.398C651.31 390.605 650.506 389.892 649.282 389.257C648.082 388.6 646.269 388.034 643.844 387.558C641.805 387.127 639.958 386.617 638.304 386.028C636.673 385.439 635.279 384.725 634.124 383.887C632.991 383.049 632.118 382.063 631.507 380.93C630.895 379.797 630.589 378.472 630.589 376.953C630.589 375.503 630.906 374.132 631.541 372.841C632.198 371.549 633.115 370.405 634.294 369.408C635.495 368.411 636.933 367.629 638.61 367.063C640.287 366.496 642.156 366.213 644.218 366.213C647.164 366.213 649.679 366.734 651.764 367.777C653.848 368.819 655.446 370.212 656.556 371.957C657.666 373.679 658.221 375.594 658.221 377.701H651.934C651.934 376.682 651.628 375.696 651.016 374.744C650.427 373.77 649.554 372.965 648.399 372.331C647.266 371.697 645.872 371.379 644.218 371.379C642.473 371.379 641.057 371.651 639.97 372.195C638.905 372.716 638.123 373.385 637.624 374.2C637.149 375.016 636.911 375.877 636.911 376.784C636.911 377.463 637.024 378.075 637.251 378.619C637.5 379.14 637.93 379.627 638.542 380.08C639.154 380.511 640.015 380.919 641.125 381.304C642.236 381.689 643.652 382.074 645.374 382.46C648.387 383.139 650.869 383.955 652.817 384.907C654.766 385.858 656.216 387.025 657.168 388.407C658.119 389.79 658.595 391.466 658.595 393.438C658.595 395.047 658.255 396.519 657.576 397.856C656.918 399.193 655.955 400.349 654.687 401.323C653.44 402.275 651.945 403.022 650.2 403.566C648.478 404.087 646.541 404.348 644.388 404.348C641.148 404.348 638.406 403.77 636.163 402.615C633.92 401.459 632.22 399.963 631.065 398.128C629.909 396.293 629.331 394.355 629.331 392.316H635.653C635.744 394.038 636.242 395.409 637.149 396.429C638.055 397.426 639.165 398.139 640.48 398.57C641.794 398.978 643.097 399.182 644.388 399.182C646.11 399.182 647.549 398.955 648.705 398.502C649.883 398.049 650.778 397.426 651.39 396.633C652.002 395.84 652.307 394.933 652.307 393.914Z" fill="white"/>
<path d="M158.73 89.3818C138.449 117.646 97.68 181.497 97.68 181.497L0 181.497C0 181.497 51.3234 102.585 76.7782 66.6882C83.1936 57.8171 88.9882 48.8428 96.4384 40.178C104.923 30.069 114.443 20.1663 127.067 11.192C132.235 7.16584 139.445 3.89194 147.969 1.70198C152.348 0.675517 157.099 0.10072 161.936 0.0120906C166.772 -0.0765387 171.595 0.322828 176.114 1.18622C186.668 3.24927 195.36 7.16908 202.189 11.6046C214.399 19.6506 221.85 29.2438 227.437 38.837C247.008 68.2243 256.317 99.0674 254.961 130.024C254.548 144.981 251.029 167.159 245.856 181.6L158.937 181.6C158.937 181.6 164.111 170.254 184.806 138.998C187.91 134.253 191.635 129.508 193.705 124.557C196.765 117.228 198.29 109.761 198.257 102.276C197.636 95.571 196.809 88.6598 191.842 82.3674C189.772 80.0981 187.289 77.6224 182.322 76.694C178.183 75.8688 174.044 77.0035 171.147 78.4476C165.145 81.3359 161.834 85.462 158.73 89.3818Z" fill="white"/>
<path d="M158.569 321.035C178.85 292.771 219.619 228.92 219.619 228.92H317.299C317.299 228.92 265.975 307.832 240.521 343.729C234.105 352.6 228.311 361.574 220.86 370.239C212.376 380.348 202.856 390.251 190.232 399.225C185.064 403.251 177.853 406.525 169.33 408.715C164.95 409.741 160.2 410.316 155.363 410.405C150.527 410.494 145.704 410.094 141.185 409.231C130.631 407.168 121.939 403.248 115.109 398.812C102.899 390.766 95.4492 381.173 89.8616 371.58C70.2911 342.193 60.9814 311.35 62.3374 280.393C62.7513 265.436 66.2694 243.258 71.4431 228.817H158.362C158.362 228.817 153.188 240.163 132.493 271.419C129.389 276.164 125.664 280.909 123.594 285.86C120.534 293.189 119.008 300.656 119.041 308.141C119.662 314.846 120.49 321.757 125.457 328.05C127.526 330.319 130.01 332.795 134.977 333.723C139.115 334.548 143.255 333.414 146.152 331.969C152.153 329.081 155.465 324.955 158.569 321.035Z" fill="white"/>
<path d="M436.406 234.689C436.406 230.916 435.814 227.587 434.63 224.702C433.521 221.743 431.524 219.08 428.639 216.713C425.828 214.346 421.907 212.09 416.877 209.944C411.92 207.799 405.633 205.617 398.013 203.398C390.024 201.03 382.811 198.404 376.376 195.519C369.94 192.56 364.429 189.194 359.842 185.422C355.256 181.649 351.742 177.322 349.301 172.439C346.86 167.557 345.639 161.972 345.639 155.684C345.639 149.396 346.934 143.589 349.523 138.263C352.112 132.937 355.811 128.313 360.619 124.393C365.501 120.398 371.308 117.291 378.04 115.072C384.772 112.853 392.28 111.743 400.565 111.743C412.697 111.743 422.98 114.073 431.413 118.734C439.92 123.32 446.392 129.349 450.831 136.821C455.269 144.218 457.489 152.133 457.489 160.566H436.184C436.184 154.5 434.889 149.137 432.3 144.477C429.711 139.743 425.791 136.044 420.538 133.381C415.286 130.644 408.628 129.275 400.565 129.275C392.946 129.275 386.658 130.422 381.702 132.715C376.745 135.008 373.047 138.115 370.606 142.036C368.238 145.956 367.055 150.432 367.055 155.462C367.055 158.865 367.758 161.972 369.163 164.783C370.643 167.52 372.899 170.072 375.932 172.439C379.039 174.806 382.959 176.989 387.694 178.986C392.502 180.983 398.235 182.907 404.893 184.756C414.066 187.345 421.981 190.23 428.639 193.411C435.296 196.592 440.77 200.18 445.061 204.174C449.425 208.095 452.643 212.57 454.715 217.601C456.86 222.557 457.932 228.179 457.932 234.467C457.932 241.051 456.601 247.005 453.938 252.332C451.275 257.658 447.465 262.207 442.509 265.98C437.552 269.753 431.598 272.675 424.644 274.746C417.764 276.743 410.071 277.742 401.564 277.742C394.092 277.742 386.732 276.706 379.483 274.635C372.307 272.564 365.76 269.457 359.842 265.314C353.998 261.172 349.301 256.067 345.75 250.001C342.273 243.862 340.535 236.76 340.535 228.697H361.84C361.84 234.245 362.912 239.016 365.058 243.011C367.203 246.931 370.125 250.186 373.824 252.775C377.596 255.365 381.85 257.288 386.584 258.545C391.392 259.729 396.386 260.321 401.564 260.321C409.035 260.321 415.36 259.285 420.538 257.214C425.717 255.143 429.637 252.184 432.3 248.337C435.037 244.49 436.406 239.941 436.406 234.689ZM512.526 254.218L543.373 155.462H556.91L554.247 175.102L522.845 275.523H509.641L512.526 254.218ZM491.776 155.462L518.074 255.328L519.96 275.523H506.09L471.248 155.462H491.776ZM586.426 254.551L611.503 155.462H631.92L597.078 275.523H583.319L586.426 254.551ZM559.906 155.462L590.088 252.554L593.528 275.523H580.434L548.144 174.88L545.481 155.462H559.906ZM647.566 216.824V214.272C647.566 205.617 648.823 197.591 651.339 190.193C653.854 182.722 657.478 176.249 662.213 170.775C666.947 165.227 672.68 160.936 679.412 157.903C686.143 154.796 693.689 153.243 702.048 153.243C710.481 153.243 718.063 154.796 724.795 157.903C731.601 160.936 737.371 165.227 742.105 170.775C746.913 176.249 750.575 182.722 753.09 190.193C755.605 197.591 756.863 205.617 756.863 214.272V216.824C756.863 225.479 755.605 233.505 753.09 240.903C750.575 248.3 746.913 254.773 742.105 260.321C737.371 265.795 731.638 270.085 724.906 273.192C718.248 276.225 710.703 277.742 702.27 277.742C693.837 277.742 686.254 276.225 679.523 273.192C672.791 270.085 667.021 265.795 662.213 260.321C657.478 254.773 653.854 248.3 651.339 240.903C648.823 233.505 647.566 225.479 647.566 216.824ZM668.094 214.272V216.824C668.094 222.816 668.796 228.475 670.202 233.801C671.608 239.053 673.716 243.714 676.527 247.782C679.412 251.851 683 255.069 687.29 257.436C691.581 259.729 696.574 260.876 702.27 260.876C707.892 260.876 712.811 259.729 717.028 257.436C721.318 255.069 724.869 251.851 727.68 247.782C730.491 243.714 732.599 239.053 734.005 233.801C735.484 228.475 736.224 222.816 736.224 216.824V214.272C736.224 208.354 735.484 202.769 734.005 197.517C732.599 192.19 730.454 187.493 727.569 183.424C724.758 179.282 721.207 176.027 716.917 173.66C712.7 171.293 707.744 170.109 702.048 170.109C696.426 170.109 691.47 171.293 687.179 173.66C682.963 176.027 679.412 179.282 676.527 183.424C673.716 187.493 671.608 192.19 670.202 197.517C668.796 202.769 668.094 208.354 668.094 214.272ZM777.169 216.824V214.272C777.169 205.617 778.427 197.591 780.942 190.193C783.457 182.722 787.082 176.249 791.816 170.775C796.55 165.227 802.283 160.936 809.015 157.903C815.747 154.796 823.292 153.243 831.651 153.243C840.084 153.243 847.667 154.796 854.398 157.903C861.204 160.936 866.974 165.227 871.708 170.775C876.517 176.249 880.178 182.722 882.694 190.193C885.209 197.591 886.466 205.617 886.466 214.272V216.824C886.466 225.479 885.209 233.505 882.694 240.903C880.178 248.3 876.517 254.773 871.708 260.321C866.974 265.795 861.241 270.085 854.509 273.192C847.852 276.225 840.306 277.742 831.873 277.742C823.44 277.742 815.858 276.225 809.126 273.192C802.394 270.085 796.624 265.795 791.816 260.321C787.082 254.773 783.457 248.3 780.942 240.903C778.427 233.505 777.169 225.479 777.169 216.824ZM797.697 214.272V216.824C797.697 222.816 798.4 228.475 799.805 233.801C801.211 239.053 803.319 243.714 806.13 247.782C809.015 251.851 812.603 255.069 816.893 257.436C821.184 259.729 826.177 260.876 831.873 260.876C837.495 260.876 842.414 259.729 846.631 257.436C850.922 255.069 854.472 251.851 857.283 247.782C860.094 243.714 862.203 239.053 863.608 233.801C865.088 228.475 865.827 222.816 865.827 216.824V214.272C865.827 208.354 865.088 202.769 863.608 197.517C862.203 192.19 860.057 187.493 857.172 183.424C854.361 179.282 850.811 176.027 846.52 173.66C842.303 171.293 837.347 170.109 831.651 170.109C826.029 170.109 821.073 171.293 816.782 173.66C812.566 176.027 809.015 179.282 806.13 183.424C803.319 187.493 801.211 192.19 799.805 197.517C798.4 202.769 797.697 208.354 797.697 214.272ZM985.666 247.782V155.462H1006.3V275.523H986.665L985.666 247.782ZM989.55 222.483L998.094 222.261C998.094 230.25 997.243 237.648 995.541 244.453C993.914 251.185 991.251 257.029 987.552 261.985C983.854 266.942 979.008 270.825 973.016 273.636C967.024 276.373 959.738 277.742 951.157 277.742C945.313 277.742 939.95 276.891 935.067 275.19C930.259 273.488 926.117 270.862 922.64 267.311C919.163 263.761 916.463 259.137 914.54 253.441C912.69 247.745 911.765 240.903 911.765 232.913V155.462H932.293V233.135C932.293 238.535 932.885 243.011 934.069 246.562C935.326 250.038 936.991 252.812 939.062 254.884C941.207 256.881 943.574 258.287 946.164 259.1C948.827 259.914 951.564 260.321 954.375 260.321C963.104 260.321 970.02 258.656 975.125 255.328C980.229 251.925 983.891 247.375 986.11 241.679C988.403 235.909 989.55 229.51 989.55 222.483Z" fill="white"/>
</svg>
